<svg id="Layer_1" data-name="Layer 1" xmlns="http://www.w3.org/2000/svg" viewBox="0 0 122 58.2"><defs><style>.cls-1{fill:#1d4d8f;}</style></defs><title>Artboard 1</title><path class="cls-1" d="M62.13,3l-.68,0h-.36l-.42.05-.48,0-.13,0-.13,0-.27.05-.57.11-.6.16a11.69,11.69,0,0,0-1.28.4A14.82,14.82,0,0,0,54.6,5.22l-.31.21-.3.21-.3.21-.29.23-.28.23a3.11,3.11,0,0,0-.28.23L52.32,7a14.34,14.34,0,0,0-1.65,1.91l-.32.44-.25.4-.22.36h-.63c-.12,0-.3,0-.53,0a11.51,11.51,0,0,0-1.87.29,11.07,11.07,0,0,0-2.49,1,11,11,0,0,0-1.27.82,10.38,10.38,0,0,0-2.2,2.19,12,12,0,0,0-.82,1.28,10.89,10.89,0,0,0-1,2.49,11.51,11.51,0,0,0-.29,1.87c0,.23,0,.41,0,.53v.19h0V21c0,.12,0,.3,0,.53a11.58,11.58,0,0,0,.29,1.86,11.13,11.13,0,0,0,1,2.5,11.87,11.87,0,0,0,.82,1.27,12.49,12.49,0,0,0,1,1.18,11.51,11.51,0,0,0,1.18,1,12.34,12.34,0,0,0,1.27.81,11.07,11.07,0,0,0,2.49,1,10.49,10.49,0,0,0,1.87.29c.23,0,.41,0,.53,0h.83l.45,0,.25,0,.27,0,.58-.11a11.11,11.11,0,0,0,1.22-.34c.4-.14.8-.3,1.15-.46s.68-.32.94-.47l.37-.2.15-.08.13-.08.26-.16h0L60,26.61l12-8.14h0l.1,0,.12-.08.17-.09a5.19,5.19,0,0,1,1-.38c.18-.05.37-.09.54-.12s.34-.06.48-.07h.57c.06,0,.15,0,.27,0a5.21,5.21,0,0,1,.94.14,5.85,5.85,0,0,1,1.25.49,6.29,6.29,0,0,1,.64.41,7.34,7.34,0,0,1,.6.51,5.6,5.6,0,0,1,.51.6c.16.21.29.43.42.64A5.37,5.37,0,0,1,80,21.73a4.57,4.57,0,0,1,.15.94c0,.11,0,.21,0,.27V23h0v.09c0,.06,0,.15,0,.27a4.57,4.57,0,0,1-.15.94,5.31,5.31,0,0,1-.48,1.25,6.52,6.52,0,0,1-.42.65,5.51,5.51,0,0,1-.51.59,5.88,5.88,0,0,1-.6.52,6.29,6.29,0,0,1-.64.41,5.31,5.31,0,0,1-1.25.48,4.57,4.57,0,0,1-.94.15h-.65l-.19,0-.48-.06c-.17,0-.36-.07-.54-.12a6,6,0,0,1-1-.39l-.17-.09-.12-.07-.1-.06h0l-3.7-2.46h0L66.55,24c-.28.42-.41.63-.41.63l-.84,1.25-.42.63,1.74,1.16h0l3.73,2.49h0l.18.11.21.12.26.14a7.78,7.78,0,0,0,1.51.6c.28.08.57.14.84.19a5.76,5.76,0,0,0,.75.1,1.62,1.62,0,0,0,.3,0h1a8.92,8.92,0,0,0,1.47-.23,8.43,8.43,0,0,0,2-.77,8.89,8.89,0,0,0,1-.64,8.74,8.74,0,0,0,.93-.8,7.85,7.85,0,0,0,.8-.93,8.89,8.89,0,0,0,.64-1,8.38,8.38,0,0,0,1-3.43,3.57,3.57,0,0,0,0-.42V23h0v-.14a3.57,3.57,0,0,0,0-.42A8,8,0,0,0,83,21a8.16,8.16,0,0,0-.76-2,11.16,11.16,0,0,0-.64-1,8.64,8.64,0,0,0-.8-.92,8.74,8.74,0,0,0-.93-.8,7.67,7.67,0,0,0-1-.64,8.43,8.43,0,0,0-2-.77,8,8,0,0,0-1.47-.23l-.42,0H74.4l-.3,0c-.22,0-.48.05-.75.1a6.8,6.8,0,0,0-.84.2,8,8,0,0,0-1.51.6l-.26.14-.21.12-.18.11h0l-12,8.13-4.1,2.77h0l-.18.1L54,27l-.13.07-.31.17c-.22.12-.48.25-.76.38a8.48,8.48,0,0,1-.88.35c-.3.1-.6.18-.89.25a3.2,3.2,0,0,1-.41.07l-.19,0-.18,0-.32,0h-1a7.94,7.94,0,0,1-1.34-.21,7.84,7.84,0,0,1-1.79-.7,9.21,9.21,0,0,1-.91-.58,8.29,8.29,0,0,1-.84-.73,8.5,8.5,0,0,1-.74-.85A7.72,7.72,0,0,1,42,22.62a6.89,6.89,0,0,1-.2-1.34c0-.16,0-.29,0-.38v-.13h0v-.14c0-.09,0-.22,0-.38a6.89,6.89,0,0,1,.2-1.34,8.33,8.33,0,0,1,.7-1.79,9.21,9.21,0,0,1,.58-.91c.23-.29.47-.58.73-.85a9.66,9.66,0,0,1,.85-.73,9.21,9.21,0,0,1,.91-.58,7.67,7.67,0,0,1,1.79-.7,7.94,7.94,0,0,1,1.34-.21h1l.32,0,1.29.17,0,0h0l.57-1.08q.08-.12.15-.27l.08-.14a.31.31,0,0,1,0-.1l0,0,0,0,.17-.28c.07-.1.13-.21.2-.33l.25-.34a12.3,12.3,0,0,1,1.32-1.52l.41-.38.22-.18.22-.18.23-.18.24-.17L56,7.92c.08,0,.16-.12.24-.16a12.29,12.29,0,0,1,2.05-1c.35-.11.68-.25,1-.32l.48-.12.45-.09.21,0,.1,0h.1l.38,0,.32,0h.29l.53,0h0l.46,0h.25l.28,0,.33,0,.36.05.39.07.41.09c.29.05.58.15.89.23a11.34,11.34,0,0,1,1.82.76A11.68,11.68,0,0,1,69,8.38a10,10,0,0,1,1.28,1.17l.25.26.21.25.18.23a1.25,1.25,0,0,1,.15.19l.28.37h0l.11.16c.07.1.17.27.3.49a10.38,10.38,0,0,1,1,2.1l.72-.24.71-.24.71-.24.72-.25A13.75,13.75,0,0,0,74.35,10c-.16-.28-.3-.48-.39-.62l-.14-.21h0l-.35-.47a3,3,0,0,0-.18-.25l-.24-.28-.27-.32c-.09-.11-.2-.22-.31-.34A14.21,14.21,0,0,0,70.85,6a14.16,14.16,0,0,0-4.44-2.33c-.39-.11-.76-.23-1.12-.3l-.52-.12-.5-.07c-.16,0-.31-.06-.46-.07l-.41,0L63,3h-.31l-.58,0Z"/><path class="cls-1" d="M10.65,54.09c0,.52-.12.61-.61.61H7.35c-.49,0-.61-.09-.61-.61V38.35H3c-.4,0-.49-.08-.49-.49V35.37c0-.4.09-.49.49-.49H14.87c.58,0,.72.06.72.32a1.17,1.17,0,0,1-.08.4l-.61,2.29a.56.56,0,0,1-.66.46H10.65Z"/><path class="cls-1" d="M25.21,55.1a1.37,1.37,0,0,1-.43.09c-.38,0-.61-.55-.93-1.71a6.3,6.3,0,0,1-4.42,1.71c-1.59,0-3.76-.72-3.76-4.22V41c0-.4.2-.43.55-.52L18.65,40c.08,0,.37-.09.46-.09s.23.12.23.61v9.2c0,1.1.14,2.43,1.62,2.43a4.5,4.5,0,0,0,2.55-.9V41c0-.4.2-.43.55-.52L26.49,40c.08,0,.37-.09.49-.09s.2.12.2.61v9a11.55,11.55,0,0,0,.55,4.51c0,.14-.12.26-.32.32Z"/><path class="cls-1" d="M35,54.29c0,.32-.06.41-.4.41H31.69c-.35,0-.4-.09-.4-.41V45.56c0-3.19-.75-3.71-.75-4.37,0-.12.11-.21.25-.26L33,40a1.86,1.86,0,0,1,.38-.12c.35,0,.93,1.31,1.07,2.29.55-.67,1.62-2.29,3.59-2.29.84,0,1.67.29,1.67.67a.72.72,0,0,1-.05.29l-.9,2.43c0,.09-.12.26-.23.26a5.44,5.44,0,0,0-1.36-.32c-.9,0-1.82,1-2.2,1.39Z"/><path class="cls-1" d="M53.73,53a.75.75,0,0,1,.26.43c0,.12,0,.21-.14.26l-2.46,1.36a.77.77,0,0,1-.35.12c-.11,0-.26-.17-.34-.29L45.4,48h-.06v6.3c0,.32-.05.41-.4.41H42.08c-.35,0-.41-.09-.41-.41V34.85c0-.4.2-.46.55-.52l2.43-.49a2.66,2.66,0,0,1,.46-.09c.18,0,.23.12.23.61V45.82L50.9,40.2a1,1,0,0,1,.4-.29c.18,0,.29.15.52.32l1.45,1.19a.39.39,0,0,1,.15.32c0,.11-.12.23-.26.37l-4.69,4.57Z"/><path class="cls-1" d="M59.58,54.35c0,.32-.18.35-.35.35H57.55c-.32,0-.35-.18-.35-.35V35.23c0-.18,0-.35.35-.35H62c2.06,0,5.88.06,5.88,5.27,0,6-5.12,6.19-6.25,6.19H59.58Zm1.88-10c1.39,0,4.08-.09,4.08-4,0-3.18-1.83-3.38-3.74-3.38H59.58v7.4Z"/><path class="cls-1" d="M72.93,42.37c.69-.81,1.62-2,3.12-2a2.89,2.89,0,0,1,1.1.23c.35.11.26.29.2.4l-.69,1.59c0,.09-.09.18-.18.18s-.11-.06-.31-.15a1.25,1.25,0,0,0-.52-.11c-.9,0-1.8,1-2.35,1.7l-.46.58v9.52c0,.17,0,.35-.35.35H71c-.32,0-.35-.18-.35-.35V44.43a4.74,4.74,0,0,0-.49-2.2l-.2-.41a.56.56,0,0,1-.12-.31.24.24,0,0,1,.12-.24l1.15-.75c.12-.06.15-.11.21-.11h0c.24,0,.41.31.5.46a6.92,6.92,0,0,1,.66,2Z"/><path class="cls-1" d="M84.39,54.35c0,.32-.17.35-.34.35H82.54c-.17,0-.34,0-.34-.35V42.6H79.94c-.17,0-.35,0-.35-.34v-1.1c0-.32.18-.35.35-.35H84c.34,0,.37.29.37.44ZM83.15,37.51a1.79,1.79,0,1,1,1.79-1.79A1.76,1.76,0,0,1,83.15,37.51Z"/><path class="cls-1" d="M89.46,44.43A5.28,5.28,0,0,0,89,41.59a.53.53,0,0,1-.08-.2c0-.09.08-.14.14-.17l1.3-.73c.15-.08.35-.2.52.18a6.67,6.67,0,0,1,.47,1.47,6,6,0,0,1,4.07-1.73,2.65,2.65,0,0,1,2.69,1.73c1.77-1.27,2.93-1.73,4.11-1.73,3,0,3.21,2.6,3.21,4.34v9.6c0,.32-.17.35-.34.35h-1.51c-.17,0-.34,0-.34-.35V44.69c0-.78-.09-2.35-1.89-2.35a4.93,4.93,0,0,0-2.57,1l-.23.17V54.35c0,.32-.17.35-.35.35h-1.5c-.18,0-.35,0-.35-.35V44.69c0-.81-.09-2.35-1.88-2.35a4.33,4.33,0,0,0-2.81,1.19V54.35c0,.17,0,.35-.34.35H89.8c-.17,0-.34,0-.34-.35Z"/><path class="cls-1" d="M119.16,53.45a.38.38,0,0,1,0,.18c0,.11-.17.29-1.07.72a8,8,0,0,1-3.27.75c-2.83,0-6.3-1.65-6.3-7.35,0-4.68,2.48-7.34,5.78-7.34,2.43,0,5.21,1.24,5.21,7.17v.15c0,.4-.12.49-.32.49h-8.3v.14c0,3.36,2,4.8,4,4.8a6.33,6.33,0,0,0,3.18-1,1.7,1.7,0,0,1,.35-.14h.06a.17.17,0,0,1,.14.14Zm-2-7A6.6,6.6,0,0,0,116.7,44a2.62,2.62,0,0,0-2.57-1.76c-1.53,0-3.15,1.13-3.21,4.22Z"/></svg>