<svg id="Layer_1" data-name="Layer 1" xmlns="http://www.w3.org/2000/svg" viewBox="0 0 122 58.25"><defs><style>.cls-1{fill:#1d4d8f;}</style></defs><title>turkprime</title><path class="cls-1" d="M61.26,3.53l-.66,0-.36,0-.41,0-.47.06h-.12l-.13,0-.26,0-.56.11L57.71,4c-.41.1-.82.26-1.25.4a14.69,14.69,0,0,0-2.54,1.27l-.3.2-.3.21L53,6.3l-.28.22-.28.22L52.21,7l-.51.47A14.51,14.51,0,0,0,50.08,9.3l-.3.43c-.09.13-.17.27-.25.39l-.21.35H48.7c-.12,0-.29,0-.51,0a10.15,10.15,0,0,0-1.83.29,10.67,10.67,0,0,0-2.43.94,14.25,14.25,0,0,0-1.24.79,12,12,0,0,0-1.14,1,10.84,10.84,0,0,0-1,1.15,10.5,10.5,0,0,0-1.74,3.67,9.9,9.9,0,0,0-.28,1.82c0,.22,0,.4,0,.51a1.49,1.49,0,0,1,0,.19h0a1.23,1.23,0,0,1,0,.18c0,.12,0,.3,0,.52a9.9,9.9,0,0,0,.28,1.82,10.56,10.56,0,0,0,.95,2.43A10.34,10.34,0,0,0,40.55,27a10.84,10.84,0,0,0,1,1.15,10.64,10.64,0,0,0,1.14,1,12.21,12.21,0,0,0,1.24.79,10.29,10.29,0,0,0,2.43.95,11.14,11.14,0,0,0,1.83.29h1.33l.43,0,.25,0,.26,0c.18,0,.37-.06.56-.1.39-.09.8-.2,1.19-.33s.78-.29,1.13-.45.66-.32.91-.46l.36-.19.14-.08.14-.08.25-.15h0l4-2.71L70.87,18.6h0l.09-.05.12-.07.17-.09a4.72,4.72,0,0,1,.94-.37,4.94,4.94,0,0,1,.52-.13l.47-.06h.55c.06,0,.15,0,.27,0a5,5,0,0,1,.91.14,5.58,5.58,0,0,1,1.23.47,5.93,5.93,0,0,1,.62.4,7,7,0,0,1,.58.51,5.47,5.47,0,0,1,.5.58,4.66,4.66,0,0,1,.4.62,5.18,5.18,0,0,1,.48,1.23,5,5,0,0,1,.14.91c0,.12,0,.2,0,.27a.62.62,0,0,1,0,.09h0a.62.62,0,0,1,0,.09c0,.06,0,.15,0,.27a5,5,0,0,1-.62,2.13,4.75,4.75,0,0,1-.4.63,5.18,5.18,0,0,1-1.08,1.08,3.83,3.83,0,0,1-.62.4,5.18,5.18,0,0,1-1.23.48,4.91,4.91,0,0,1-.92.14h-.62l-.19,0-.47-.06a4.87,4.87,0,0,1-.52-.12,4.72,4.72,0,0,1-.94-.37l-.17-.09L71,27.55l-.09-.06h0l-3.6-2.4h0L65.57,24l-.41.61-.81,1.22-.41.61,1.7,1.13h0L69.27,30h0l.18.11.2.12.26.14a8.21,8.21,0,0,0,1.46.58c.28.08.56.14.82.19s.52.08.73.1l.3,0h.56l.41,0A8.22,8.22,0,0,0,75.62,31a8.51,8.51,0,0,0,1.92-.75,8.36,8.36,0,0,0,1-.62,7.81,7.81,0,0,0,1.69-1.69,9.3,9.3,0,0,0,.62-1A8.51,8.51,0,0,0,81.57,25a8.22,8.22,0,0,0,.22-1.43c0-.17,0-.31,0-.41v-.14h0V22.9c0-.09,0-.23,0-.4a7.9,7.9,0,0,0-1-3.35,8.36,8.36,0,0,0-.62-1,7.81,7.81,0,0,0-1.69-1.69,8.36,8.36,0,0,0-1-.62,8.17,8.17,0,0,0-1.91-.75,8.45,8.45,0,0,0-1.44-.22,3.27,3.27,0,0,0-.4,0h-.57l-.29,0c-.22,0-.47.05-.73.1a6.58,6.58,0,0,0-.83.19,8.21,8.21,0,0,0-1.46.58l-.26.14-.2.11-.18.12h0l-11.7,7.92-4,2.7h0l-.18.11-.09.05-.12.07-.3.17c-.22.12-.47.24-.75.37s-.56.24-.86.34a7.42,7.42,0,0,1-.86.24l-.4.08-.19,0-.17,0-.31,0h-.95a7.66,7.66,0,0,1-3.05-.88c-.29-.17-.59-.36-.88-.57a8.08,8.08,0,0,1-.83-.72,6.84,6.84,0,0,1-.71-.82,6.67,6.67,0,0,1-.57-.89,7.87,7.87,0,0,1-.68-1.74,6.64,6.64,0,0,1-.2-1.31c0-.16,0-.28,0-.37v-.13h0v-.13c0-.09,0-.22,0-.38a6.67,6.67,0,0,1,.2-1.3,7.51,7.51,0,0,1,.68-1.74,7.74,7.74,0,0,1,.56-.89,8.08,8.08,0,0,1,.72-.83,9.41,9.41,0,0,1,.83-.71c.29-.21.59-.4.88-.57a7.87,7.87,0,0,1,1.74-.68,7.63,7.63,0,0,1,1.31-.2c.16,0,.29,0,.37,0h.64l.31,0L51,13.6l0,0h0s.21-.38.56-1.05l.15-.26c0-.05.05-.09.07-.14l.05-.1,0,0v0l.17-.27.2-.32a3.43,3.43,0,0,1,.24-.33,10.28,10.28,0,0,1,1.28-1.48l.4-.37L54.35,9l.22-.18.22-.18L55,8.48l.23-.16a1.25,1.25,0,0,1,.24-.16,11.32,11.32,0,0,1,2-1c.34-.11.66-.24,1-.32l.46-.12.43-.08.21,0,.1,0h.09l.37,0,.32,0h.28l.52,0H62l.28,0,.32,0,.35.06.38.05.4.09c.28,0,.56.15.86.23a12.21,12.21,0,0,1,1.78.74,12.65,12.65,0,0,1,1.63,1A10.88,10.88,0,0,1,69.2,9.9l.24.26.21.25c.06.07.12.15.18.21s.1.14.14.19l.27.37h0l.11.15.3.48a11.11,11.11,0,0,1,.94,2l.7-.23.7-.24.69-.23.69-.24a13.51,13.51,0,0,0-1.2-2.61c-.16-.27-.29-.47-.38-.6l-.13-.2h0L72.31,9l-.18-.24-.23-.27-.26-.31c-.09-.11-.2-.22-.3-.33a14.29,14.29,0,0,0-1.58-1.44A14,14,0,0,0,67.7,5.12a15.2,15.2,0,0,0-2.27-1c-.38-.1-.74-.22-1.09-.29l-.51-.11-.49-.08-.44-.06-.4,0-.36,0h-.3l-.58,0Z"/><path class="cls-1" d="M11.07,53.32c0,.51-.11.59-.59.59H7.86c-.48,0-.59-.08-.59-.59V38H3.57c-.39,0-.47-.08-.47-.48V35.08c0-.4.08-.48.47-.48H15.19c.57,0,.71,0,.71.31a1.17,1.17,0,0,1-.09.39l-.59,2.23a.55.55,0,0,1-.65.45h-3.5Z"/><path class="cls-1" d="M25.27,54.31a1.59,1.59,0,0,1-.42.08c-.37,0-.59-.53-.9-1.66a6.17,6.17,0,0,1-4.32,1.66c-1.55,0-3.66-.7-3.66-4.11v-9.7c0-.4.19-.43.53-.51l2.37-.48c.09,0,.37-.09.45-.09s.23.12.23.6v9c0,1.07.14,2.37,1.58,2.37a4.5,4.5,0,0,0,2.48-.87v-10c0-.4.2-.43.53-.51l2.37-.48c.09,0,.37-.09.48-.09s.2.12.2.6v8.79a11.24,11.24,0,0,0,.54,4.4c0,.14-.12.26-.31.31Z"/><path class="cls-1" d="M34.77,53.52c0,.31-.05.39-.39.39H31.59c-.34,0-.4-.08-.4-.39V45c0-3.1-.73-3.61-.73-4.26,0-.11.11-.19.25-.25l2.15-.87a1.69,1.69,0,0,1,.36-.12c.34,0,.91,1.27,1.05,2.23.53-.65,1.58-2.23,3.49-2.23.82,0,1.64.29,1.64.65a.65.65,0,0,1-.06.28l-.87,2.37c0,.09-.11.26-.23.26a5.23,5.23,0,0,0-1.32-.31c-.88,0-1.78,1-2.15,1.35Z"/><path class="cls-1" d="M53.07,52.28a.73.73,0,0,1,.26.42.24.24,0,0,1-.14.25l-2.4,1.33a.76.76,0,0,1-.34.11c-.11,0-.25-.17-.34-.28L45,47.37H44.9v6.15c0,.31-.06.39-.4.39H41.71c-.34,0-.39-.08-.39-.39v-19c0-.4.19-.45.53-.51l2.37-.48a2.36,2.36,0,0,1,.45-.08c.17,0,.23.11.23.59V45.26l5.41-5.47a.85.85,0,0,1,.4-.29c.16,0,.28.14.5.31L52.62,41a.37.37,0,0,1,.14.31c0,.11-.11.23-.25.37L47.94,46.1Z"/><path class="cls-1" d="M58.77,53.58c0,.3-.17.33-.34.33H56.79c-.3,0-.33-.17-.33-.33V34.94c0-.17,0-.34.33-.34h4.38c2,0,5.72,0,5.72,5.13,0,5.89-5,6-6.09,6h-2Zm1.83-9.79c1.36,0,4-.08,4-3.92,0-3.1-1.78-3.3-3.64-3.3H58.77v7.22Z"/><path class="cls-1" d="M71.78,41.9c.68-.79,1.58-1.92,3-1.92a2.92,2.92,0,0,1,1.07.23c.34.11.25.28.2.39l-.68,1.55c0,.09-.08.17-.17.17s-.11,0-.31-.14a1.17,1.17,0,0,0-.51-.11c-.87,0-1.74,1-2.28,1.66l-.45.57v9.28c0,.16,0,.33-.34.33H69.89c-.31,0-.34-.17-.34-.33V43.9a4.65,4.65,0,0,0-.47-2.14l-.2-.39a.59.59,0,0,1-.11-.32.22.22,0,0,1,.11-.22L70,40.1c.11-.06.14-.12.19-.12h.06c.23,0,.39.31.48.45a6.6,6.6,0,0,1,.65,1.92Z"/><path class="cls-1" d="M83,53.58c0,.3-.17.33-.34.33H81.16c-.17,0-.34,0-.34-.33V42.13h-2.2c-.17,0-.34,0-.34-.34V40.72c0-.31.17-.34.34-.34h4c.34,0,.37.28.37.42ZM81.75,37.16a1.75,1.75,0,1,1,1.75-1.74A1.72,1.72,0,0,1,81.75,37.16Z"/><path class="cls-1" d="M87.89,43.9a5.1,5.1,0,0,0-.45-2.76.83.83,0,0,1-.08-.2c0-.08.08-.14.14-.17l1.27-.7c.14-.09.34-.2.51.17a6.86,6.86,0,0,1,.45,1.43,5.92,5.92,0,0,1,4-1.69,2.61,2.61,0,0,1,2.63,1.69c1.72-1.24,2.84-1.69,4-1.69,3,0,3.13,2.54,3.13,4.23v9.37c0,.3-.17.33-.34.33h-1.47c-.16,0-.33,0-.33-.33V44.16c0-.76-.09-2.29-1.84-2.29a4.91,4.91,0,0,0-2.51,1l-.22.17V53.58c0,.3-.17.33-.34.33H94.94c-.16,0-.33,0-.33-.33V44.16c0-.79-.09-2.29-1.84-2.29A4.14,4.14,0,0,0,90,43V53.58c0,.16,0,.33-.34.33H88.23c-.17,0-.34,0-.34-.33Z"/><path class="cls-1" d="M116.85,52.7a.34.34,0,0,1,0,.17c0,.11-.17.28-1,.71a7.94,7.94,0,0,1-3.19.73c-2.76,0-6.15-1.61-6.15-7.16,0-4.57,2.43-7.17,5.64-7.17,2.37,0,5.08,1.22,5.08,7v.14c0,.39-.11.48-.31.48h-8.09v.14c0,3.27,2,4.68,3.89,4.68a6.18,6.18,0,0,0,3.1-1,2,2,0,0,1,.34-.14h0a.16.16,0,0,1,.14.14Zm-1.94-6.85a6.4,6.4,0,0,0-.46-2.4,2.55,2.55,0,0,0-2.5-1.72c-1.5,0-3.08,1.1-3.13,4.12Z"/></svg>